<svg width="19" height="14" viewBox="0 0 19 14" fill="none" xmlns="http://www.w3.org/2000/svg">
<path d="M4.78369 13.551C3.51242 13.551 2.42639 13.111 1.5256 12.2309C0.624257 11.3507 0.173584 10.2751 0.173584 9.00378C0.173584 7.91412 0.501879 6.94321 1.15847 6.09104C1.81506 5.23887 2.67422 4.69404 3.73594 4.45655C3.97343 3.4507 4.56715 2.49376 5.51711 1.58571C6.46708 0.677658 7.4799 0.223633 8.55559 0.223633C9.0166 0.223633 9.4114 0.387641 9.73997 0.715656C10.068 1.04423 10.232 1.43902 10.232 1.90003V6.97115L11.5731 5.67194L12.7466 6.84542L9.39379 10.1982L6.04099 6.84542L7.21447 5.67194L8.55559 6.97115V1.90003C7.49387 2.09561 6.66964 2.60887 6.0829 3.43981C5.49616 4.2713 5.20279 5.12711 5.20279 6.00722H4.78369C3.97343 6.00722 3.28191 6.2936 2.70914 6.86637C2.13637 7.43914 1.84999 8.13066 1.84999 8.94092C1.84999 9.75118 2.13637 10.4427 2.70914 11.0155C3.28191 11.5882 3.97343 11.8746 4.78369 11.8746H14.8421C15.4288 11.8746 15.9248 11.6721 16.3299 11.2669C16.735 10.8618 16.9376 10.3659 16.9376 9.77912C16.9376 9.19238 16.735 8.69644 16.3299 8.29131C15.9248 7.88618 15.4288 7.68362 14.8421 7.68362H13.5848V6.00722C13.5848 5.33666 13.4311 4.71136 13.1238 4.13132C12.8164 3.55185 12.4113 3.05955 11.9084 2.65441V0.705598C12.9422 1.19455 13.7594 1.91764 14.3601 2.87486C14.9608 3.83153 15.2612 4.87565 15.2612 6.00722C16.2251 6.11898 17.0251 6.53445 17.661 7.25362C18.2963 7.97336 18.614 8.81519 18.614 9.77912C18.614 10.8269 18.2474 11.7176 17.5143 12.4513C16.7806 13.1844 15.8899 13.551 14.8421 13.551H4.78369Z" fill="black"/>
</svg>
